<svg xmlns="http://www.w3.org/2000/svg" xmlns:xlink="http://www.w3.org/1999/xlink" width="452"
    zoomAndPan="magnify" viewBox="0 0 339 338.999992" height="452"
    preserveAspectRatio="xMidYMid meet" version="1.0">
    <defs>
        <clipPath id="9176126737">
            <path
                d="M 0.433594 0.433594 L 339 0.433594 L 339 339 L 0.433594 339 Z M 0.433594 0.433594 "
                clip-rule="nonzero" />
        </clipPath>
        <clipPath id="9f25274feb">
            <path d="M 149 122.078125 L 190 122.078125 L 190 217 L 149 217 Z M 149 122.078125 "
                clip-rule="nonzero" />
        </clipPath>
    </defs>
    <g clip-path="url(#9176126737)">
        <path fill="#f5a641"
            d="M 337.144531 197.449219 C 337.839844 174.648438 337.839844 174.605469 338.539062 151.8125 L 303.234375 138.042969 C 298.140625 124.597656 295.59375 117.851562 290.5 104.402344 L 307.808594 70.679688 C 292.171875 54.117188 292.128906 54.074219 276.496094 37.460938 L 241.828125 52.671875 L 209.078125 37.886719 L 197.449219 1.828125 L 151.855469 0.433594 L 138.042969 35.738281 C 124.640625 40.832031 117.851562 43.378906 104.453125 48.472656 L 70.730469 31.179688 C 54.117188 46.765625 54.074219 46.816406 37.460938 62.445312 L 52.671875 97.144531 C 46.816406 110.21875 43.835938 116.832031 37.929688 129.894531 L 1.828125 141.53125 C 1.128906 164.324219 1.128906 164.367188 0.433594 187.117188 L 35.738281 200.9375 C 40.832031 214.332031 43.378906 221.121094 48.472656 234.570312 L 31.179688 268.25 C 46.816406 284.855469 46.859375 284.90625 62.445312 301.511719 L 97.144531 286.296875 C 110.269531 292.164062 116.875 295.136719 129.945312 301.042969 L 141.53125 337.144531 L 187.183594 338.539062 L 200.953125 303.234375 C 214.398438 298.140625 221.140625 295.59375 234.585938 290.5 L 268.3125 307.808594 L 301.527344 276.546875 L 286.316406 241.84375 C 292.257812 228.769531 295.203125 222.117188 301.109375 209.042969 Z M 169.484375 268.675781 C 167.863281 268.675781 166.242188 268.636719 164.621094 268.554688 C 163 268.476562 161.378906 268.355469 159.765625 268.199219 C 158.148438 268.039062 156.539062 267.839844 154.933594 267.601562 C 153.328125 267.363281 151.730469 267.085938 150.136719 266.769531 C 148.546875 266.453125 146.960938 266.097656 145.386719 265.703125 C 143.8125 265.308594 142.25 264.875 140.695312 264.402344 C 139.144531 263.933594 137.601562 263.421875 136.074219 262.875 C 134.546875 262.328125 133.03125 261.746094 131.53125 261.125 C 130.035156 260.503906 128.550781 259.84375 127.082031 259.152344 C 125.617188 258.457031 124.167969 257.726562 122.734375 256.960938 C 121.304688 256.195312 119.890625 255.398438 118.5 254.5625 C 117.105469 253.726562 115.738281 252.859375 114.386719 251.957031 C 113.039062 251.054688 111.710938 250.121094 110.40625 249.152344 C 109.105469 248.1875 107.824219 247.1875 106.570312 246.160156 C 105.316406 245.128906 104.085938 244.070312 102.882812 242.980469 C 101.679688 241.890625 100.507812 240.769531 99.359375 239.621094 C 98.210938 238.476562 97.09375 237.300781 96.003906 236.097656 C 94.914062 234.894531 93.851562 233.664062 92.824219 232.410156 C 91.792969 231.15625 90.796875 229.875 89.828125 228.574219 C 88.863281 227.269531 87.925781 225.941406 87.027344 224.59375 C 86.125 223.242188 85.253906 221.871094 84.421875 220.480469 C 83.585938 219.085938 82.789062 217.675781 82.023438 216.246094 C 81.257812 214.8125 80.527344 213.363281 79.832031 211.894531 C 79.140625 210.429688 78.480469 208.945312 77.859375 207.445312 C 77.238281 205.945312 76.65625 204.433594 76.109375 202.902344 C 75.5625 201.375 75.054688 199.835938 74.582031 198.28125 C 74.113281 196.730469 73.679688 195.164062 73.285156 193.589844 C 72.890625 192.015625 72.535156 190.433594 72.21875 188.839844 C 71.902344 187.25 71.625 185.648438 71.386719 184.042969 C 71.148438 182.4375 70.949219 180.828125 70.789062 179.214844 C 70.632812 177.597656 70.511719 175.980469 70.433594 174.359375 C 70.351562 172.738281 70.3125 171.113281 70.3125 169.492188 C 70.3125 167.867188 70.351562 166.246094 70.433594 164.625 C 70.511719 163.003906 70.632812 161.386719 70.789062 159.769531 C 70.949219 158.15625 71.148438 156.546875 71.386719 154.9375 C 71.625 153.332031 71.902344 151.734375 72.21875 150.144531 C 72.535156 148.550781 72.890625 146.96875 73.285156 145.394531 C 73.679688 143.820312 74.113281 142.253906 74.585938 140.703125 C 75.054688 139.148438 75.566406 137.609375 76.113281 136.078125 C 76.660156 134.550781 77.242188 133.039062 77.863281 131.539062 C 78.484375 130.039062 79.140625 128.554688 79.835938 127.089844 C 80.53125 125.621094 81.257812 124.171875 82.023438 122.738281 C 82.789062 121.308594 83.589844 119.898438 84.425781 118.503906 C 85.257812 117.113281 86.125 115.742188 87.027344 114.390625 C 87.929688 113.042969 88.863281 111.714844 89.832031 110.410156 C 90.796875 109.109375 91.796875 107.828125 92.828125 106.574219 C 93.855469 105.320312 94.917969 104.089844 96.007812 102.886719 C 97.097656 101.6875 98.214844 100.511719 99.363281 99.363281 C 100.511719 98.214844 101.6875 97.097656 102.886719 96.007812 C 104.089844 94.917969 105.320312 93.855469 106.574219 92.828125 C 107.828125 91.796875 109.109375 90.796875 110.410156 89.832031 C 111.714844 88.863281 113.042969 87.929688 114.390625 87.027344 C 115.742188 86.125 117.113281 85.257812 118.503906 84.425781 C 119.898438 83.589844 121.308594 82.789062 122.738281 82.023438 C 124.171875 81.257812 125.621094 80.53125 127.089844 79.835938 C 128.554688 79.140625 130.039062 78.484375 131.539062 77.863281 C 133.039062 77.242188 134.550781 76.660156 136.078125 76.113281 C 137.609375 75.566406 139.148438 75.054688 140.703125 74.585938 C 142.253906 74.113281 143.820312 73.679688 145.394531 73.285156 C 146.96875 72.890625 148.550781 72.535156 150.144531 72.21875 C 151.734375 71.902344 153.332031 71.625 154.9375 71.386719 C 156.546875 71.148438 158.15625 70.949219 159.769531 70.789062 C 161.386719 70.632812 163.003906 70.511719 164.625 70.433594 C 166.246094 70.351562 167.867188 70.3125 169.492188 70.3125 C 171.113281 70.3125 172.738281 70.351562 174.359375 70.433594 C 175.980469 70.511719 177.597656 70.632812 179.214844 70.789062 C 180.828125 70.949219 182.4375 71.148438 184.042969 71.386719 C 185.648438 71.625 187.25 71.902344 188.839844 72.21875 C 190.433594 72.535156 192.015625 72.890625 193.589844 73.285156 C 195.164062 73.679688 196.730469 74.113281 198.28125 74.582031 C 199.835938 75.054688 201.375 75.5625 202.902344 76.109375 C 204.433594 76.65625 205.945312 77.238281 207.445312 77.859375 C 208.945312 78.480469 210.429688 79.140625 211.894531 79.832031 C 213.363281 80.527344 214.8125 81.257812 216.246094 82.023438 C 217.675781 82.789062 219.085938 83.585938 220.480469 84.421875 C 221.871094 85.253906 223.242188 86.125 224.59375 87.027344 C 225.941406 87.925781 227.269531 88.863281 228.574219 89.828125 C 229.875 90.796875 231.15625 91.792969 232.410156 92.824219 C 233.664062 93.851562 234.894531 94.914062 236.097656 96.003906 C 237.300781 97.09375 238.476562 98.210938 239.621094 99.359375 C 240.769531 100.507812 241.890625 101.679688 242.980469 102.882812 C 244.070312 104.085938 245.128906 105.316406 246.160156 106.570312 C 247.1875 107.824219 248.1875 109.105469 249.152344 110.40625 C 250.121094 111.710938 251.054688 113.039062 251.957031 114.386719 C 252.859375 115.738281 253.726562 117.105469 254.5625 118.5 C 255.398438 119.890625 256.195312 121.304688 256.960938 122.734375 C 257.726562 124.167969 258.457031 125.617188 259.152344 127.082031 C 259.84375 128.550781 260.503906 130.035156 261.125 131.53125 C 261.746094 133.03125 262.328125 134.546875 262.875 136.074219 C 263.421875 137.601562 263.933594 139.144531 264.402344 140.695312 C 264.875 142.25 265.308594 143.8125 265.703125 145.386719 C 266.097656 146.960938 266.453125 148.546875 266.769531 150.136719 C 267.085938 151.730469 267.363281 153.328125 267.601562 154.933594 C 267.839844 156.539062 268.039062 158.148438 268.199219 159.765625 C 268.355469 161.378906 268.476562 163 268.554688 164.621094 C 268.636719 166.242188 268.675781 167.863281 268.675781 169.484375 C 268.675781 171.109375 268.636719 172.730469 268.554688 174.351562 C 268.476562 175.972656 268.355469 177.59375 268.195312 179.207031 C 268.035156 180.824219 267.835938 182.433594 267.597656 184.039062 C 267.359375 185.644531 267.082031 187.242188 266.765625 188.835938 C 266.449219 190.425781 266.09375 192.011719 265.699219 193.585938 C 265.304688 195.160156 264.871094 196.722656 264.398438 198.277344 C 263.929688 199.828125 263.417969 201.371094 262.871094 202.898438 C 262.324219 204.425781 261.742188 205.941406 261.117188 207.441406 C 260.496094 208.941406 259.839844 210.421875 259.144531 211.890625 C 258.453125 213.359375 257.722656 214.808594 256.957031 216.238281 C 256.191406 217.671875 255.390625 219.082031 254.554688 220.472656 C 253.722656 221.867188 252.855469 223.238281 251.953125 224.585938 C 251.050781 225.9375 250.117188 227.261719 249.148438 228.566406 C 248.179688 229.871094 247.183594 231.148438 246.152344 232.40625 C 245.125 233.660156 244.0625 234.886719 242.972656 236.089844 C 241.882812 237.292969 240.765625 238.46875 239.617188 239.617188 C 238.46875 240.765625 237.292969 241.882812 236.089844 242.972656 C 234.886719 244.0625 233.660156 245.125 232.40625 246.152344 C 231.148438 247.183594 229.871094 248.179688 228.566406 249.148438 C 227.261719 250.117188 225.9375 251.050781 224.585938 251.953125 C 223.238281 252.855469 221.867188 253.722656 220.472656 254.554688 C 219.082031 255.390625 217.671875 256.191406 216.238281 256.957031 C 214.808594 257.722656 213.359375 258.453125 211.890625 259.144531 C 210.421875 259.839844 208.941406 260.496094 207.441406 261.117188 C 205.941406 261.742188 204.425781 262.324219 202.898438 262.871094 C 201.371094 263.417969 199.828125 263.929688 198.277344 264.398438 C 196.722656 264.871094 195.160156 265.304688 193.585938 265.699219 C 192.011719 266.09375 190.425781 266.449219 188.835938 266.765625 C 187.242188 267.082031 185.644531 267.359375 184.039062 267.597656 C 182.433594 267.835938 180.824219 268.035156 179.207031 268.195312 C 177.59375 268.355469 175.972656 268.476562 174.351562 268.554688 C 172.730469 268.636719 171.109375 268.675781 169.484375 268.675781 Z M 169.484375 268.675781 "
            fill-opacity="1" fill-rule="nonzero" />
    </g>
    <path fill="#f5a641"
        d="M 136.109375 203.550781 C 134.105469 203.550781 132.769531 202.882812 131.433594 201.550781 L 104.71875 174.835938 C 102.046875 172.164062 102.046875 168.15625 104.71875 165.484375 L 131.433594 138.773438 C 134.105469 136.101562 138.109375 136.101562 140.78125 138.773438 C 143.453125 141.445312 143.453125 145.449219 140.78125 148.121094 L 118.742188 170.160156 L 140.78125 192.199219 C 143.453125 194.871094 143.453125 198.878906 140.78125 201.550781 C 139.445312 202.882812 138.109375 203.550781 136.109375 203.550781 Z M 136.109375 203.550781 "
        fill-opacity="1" fill-rule="nonzero" />
    <path fill="#f5a641"
        d="M 202.890625 203.550781 C 200.886719 203.550781 199.550781 202.882812 198.214844 201.550781 C 195.542969 198.878906 195.542969 194.871094 198.214844 192.199219 L 220.253906 170.160156 L 198.214844 148.121094 C 195.542969 145.449219 195.542969 141.445312 198.214844 138.773438 C 200.886719 136.101562 204.894531 136.101562 207.566406 138.773438 L 234.277344 165.484375 C 236.949219 168.15625 236.949219 172.164062 234.277344 174.835938 L 207.566406 201.550781 C 206.230469 202.882812 204.894531 203.550781 202.890625 203.550781 Z M 202.890625 203.550781 "
        fill-opacity="1" fill-rule="nonzero" />
    <g clip-path="url(#9f25274feb)">
        <path fill="#f5a641"
            d="M 156.140625 216.910156 C 155.476562 216.910156 154.808594 216.910156 154.140625 216.242188 C 150.800781 214.90625 148.796875 211.566406 150.132812 207.558594 L 176.84375 127.417969 C 178.179688 124.078125 181.519531 122.078125 185.527344 123.414062 C 188.867188 124.746094 190.871094 128.085938 189.535156 132.09375 L 162.820312 212.234375 C 161.484375 214.90625 158.8125 216.910156 156.140625 216.910156 Z M 156.140625 216.910156 "
            fill-opacity="1" fill-rule="nonzero" />
    </g>
</svg>