<svg xmlns="http://www.w3.org/2000/svg" xmlns:xlink="http://www.w3.org/1999/xlink" width="500" zoomAndPan="magnify" viewBox="0 0 375 374.999991" height="500" preserveAspectRatio="xMidYMid meet" version="1.0"><defs><g/><clipPath id="885f0999c7"><path d="M 26.789062 150.617188 L 100.289062 150.617188 L 100.289062 224.117188 L 26.789062 224.117188 Z M 26.789062 150.617188 " clip-rule="nonzero"/></clipPath><clipPath id="f53eac4664"><path d="M 69 180 L 78.140625 180 L 78.140625 195 L 69 195 Z M 69 180 " clip-rule="nonzero"/></clipPath><clipPath id="b8e3ba9111"><path d="M 59 177.15625 L 69 177.15625 L 69 198 L 59 198 Z M 59 177.15625 " clip-rule="nonzero"/></clipPath></defs><rect x="-37.5" width="450" fill="#ffffff" y="-37.499999" height="449.999989" fill-opacity="1"/><rect x="-37.5" width="450" fill="#ffffff" y="-37.499999" height="449.999989" fill-opacity="1"/><g clip-path="url(#885f0999c7)"><path fill="#fd004d" d="M 100.242188 193.597656 C 100.394531 188.625 100.394531 188.613281 100.546875 183.640625 L 92.84375 180.636719 C 91.734375 177.703125 91.179688 176.234375 90.066406 173.300781 L 93.84375 165.941406 C 90.433594 162.328125 90.421875 162.320312 87.011719 158.695312 L 79.449219 162.015625 L 72.304688 158.789062 L 69.769531 150.921875 L 59.820312 150.617188 L 56.808594 158.320312 C 53.886719 159.429688 52.402344 159.988281 49.480469 161.097656 L 42.125 157.324219 C 38.5 160.726562 38.492188 160.738281 34.867188 164.144531 L 38.183594 171.714844 C 36.90625 174.566406 36.257812 176.011719 34.96875 178.859375 L 27.09375 181.398438 C 26.941406 186.371094 26.941406 186.378906 26.789062 191.34375 L 34.492188 194.359375 C 35.601562 197.28125 36.15625 198.761719 37.269531 201.695312 L 33.496094 209.042969 C 36.90625 212.664062 36.917969 212.675781 40.316406 216.296875 L 47.886719 212.980469 C 50.75 214.261719 52.191406 214.90625 55.042969 216.195312 L 57.570312 224.074219 L 67.527344 224.375 L 70.53125 216.675781 C 73.464844 215.5625 74.9375 215.007812 77.871094 213.898438 L 85.226562 217.671875 L 92.472656 210.851562 L 89.15625 203.28125 C 90.449219 200.429688 91.09375 198.980469 92.382812 196.125 Z M 63.667969 209.136719 C 62.960938 209.136719 62.253906 209.101562 61.546875 209.03125 C 60.84375 208.960938 60.140625 208.859375 59.449219 208.71875 C 58.753906 208.582031 58.066406 208.410156 57.386719 208.203125 C 56.710938 207.996094 56.042969 207.757812 55.390625 207.488281 C 54.734375 207.21875 54.09375 206.914062 53.46875 206.582031 C 52.84375 206.246094 52.238281 205.882812 51.648438 205.488281 C 51.058594 205.09375 50.492188 204.671875 49.941406 204.222656 C 49.394531 203.773438 48.871094 203.300781 48.371094 202.796875 C 47.867188 202.296875 47.394531 201.773438 46.945312 201.222656 C 46.496094 200.675781 46.074219 200.109375 45.679688 199.519531 C 45.285156 198.929688 44.921875 198.324219 44.585938 197.699219 C 44.253906 197.074219 43.953125 196.433594 43.679688 195.777344 C 43.410156 195.125 43.171875 194.457031 42.964844 193.777344 C 42.757812 193.101562 42.585938 192.414062 42.449219 191.71875 C 42.3125 191.023438 42.207031 190.324219 42.136719 189.621094 C 42.066406 188.914062 42.035156 188.207031 42.035156 187.5 C 42.035156 186.789062 42.066406 186.082031 42.136719 185.378906 C 42.207031 184.671875 42.3125 183.972656 42.449219 183.277344 C 42.585938 182.582031 42.757812 181.894531 42.964844 181.21875 C 43.171875 180.539062 43.410156 179.875 43.679688 179.21875 C 43.953125 178.5625 44.253906 177.925781 44.589844 177.300781 C 44.921875 176.675781 45.285156 176.066406 45.679688 175.476562 C 46.074219 174.890625 46.496094 174.320312 46.945312 173.773438 C 47.394531 173.226562 47.871094 172.699219 48.371094 172.199219 C 48.871094 171.699219 49.394531 171.222656 49.945312 170.773438 C 50.492188 170.324219 51.058594 169.902344 51.648438 169.507812 C 52.238281 169.117188 52.84375 168.75 53.46875 168.417969 C 54.09375 168.082031 54.734375 167.78125 55.390625 167.507812 C 56.042969 167.238281 56.710938 167 57.390625 166.792969 C 58.066406 166.589844 58.753906 166.417969 59.449219 166.277344 C 60.144531 166.140625 60.84375 166.035156 61.546875 165.96875 C 62.253906 165.898438 62.960938 165.863281 63.667969 165.863281 C 64.378906 165.863281 65.085938 165.898438 65.789062 165.964844 C 66.496094 166.035156 67.195312 166.140625 67.890625 166.277344 C 68.585938 166.417969 69.273438 166.589844 69.949219 166.792969 C 70.628906 167 71.292969 167.238281 71.949219 167.507812 C 72.605469 167.78125 73.242188 168.082031 73.867188 168.417969 C 74.492188 168.75 75.101562 169.113281 75.691406 169.507812 C 76.277344 169.902344 76.847656 170.324219 77.394531 170.773438 C 77.941406 171.222656 78.46875 171.699219 78.96875 172.199219 C 79.46875 172.699219 79.945312 173.222656 80.394531 173.773438 C 80.84375 174.320312 81.265625 174.886719 81.660156 175.476562 C 82.054688 176.066406 82.417969 176.671875 82.75 177.296875 C 83.085938 177.921875 83.386719 178.5625 83.660156 179.21875 C 83.929688 179.871094 84.167969 180.539062 84.375 181.21875 C 84.582031 181.894531 84.753906 182.582031 84.890625 183.277344 C 85.027344 183.972656 85.132812 184.671875 85.203125 185.375 C 85.273438 186.082031 85.308594 186.789062 85.308594 187.496094 C 85.304688 188.207031 85.273438 188.914062 85.203125 189.617188 C 85.132812 190.324219 85.027344 191.023438 84.890625 191.71875 C 84.75 192.414062 84.578125 193.101562 84.375 193.777344 C 84.167969 194.457031 83.929688 195.121094 83.65625 195.777344 C 83.386719 196.433594 83.085938 197.070312 82.75 197.695312 C 82.414062 198.320312 82.050781 198.929688 81.660156 199.519531 C 81.265625 200.105469 80.84375 200.675781 80.394531 201.222656 C 79.945312 201.769531 79.46875 202.296875 78.96875 202.796875 C 78.464844 203.296875 77.941406 203.773438 77.394531 204.222656 C 76.847656 204.671875 76.277344 205.09375 75.6875 205.488281 C 75.097656 205.882812 74.492188 206.246094 73.867188 206.578125 C 73.242188 206.914062 72.601562 207.214844 71.949219 207.488281 C 71.292969 207.757812 70.628906 207.996094 69.949219 208.203125 C 69.269531 208.410156 68.585938 208.582031 67.890625 208.71875 C 67.195312 208.859375 66.496094 208.960938 65.789062 209.03125 C 65.082031 209.101562 64.375 209.136719 63.667969 209.136719 Z M 63.667969 209.136719 " fill-opacity="1" fill-rule="nonzero"/></g><g fill="#1e2c54" fill-opacity="1"><g transform="translate(115.907055, 195.749987)"><g><path d="M 8.8125 -4.84375 L 13.375 -18.65625 L 17.359375 -18.65625 L 10.6875 0 L 6.640625 0 L 0 -18.65625 L 4.09375 -18.65625 Z M 8.8125 -4.84375 "/></g></g></g><g fill="#1e2c54" fill-opacity="1"><g transform="translate(134.620469, 195.749987)"><g><path d="M 8.421875 -18.96875 C 10.484375 -18.96875 12.171875 -18.503906 13.484375 -17.578125 C 14.796875 -16.660156 15.488281 -15.238281 15.5625 -13.3125 L 11.78125 -13.15625 C 11.65625 -14.03125 11.335938 -14.703125 10.828125 -15.171875 C 10.316406 -15.640625 9.492188 -15.875 8.359375 -15.875 C 7.578125 -15.875 6.859375 -15.734375 6.203125 -15.453125 C 5.546875 -15.171875 5.21875 -14.691406 5.21875 -14.015625 C 5.21875 -13.441406 5.507812 -12.984375 6.09375 -12.640625 C 6.6875 -12.304688 7.738281 -11.96875 9.25 -11.625 C 10.65625 -11.289062 11.8125 -10.9375 12.71875 -10.5625 C 13.632812 -10.195312 14.421875 -9.597656 15.078125 -8.765625 C 15.742188 -7.941406 16.078125 -6.828125 16.078125 -5.421875 C 16.078125 -4.710938 15.910156 -3.957031 15.578125 -3.15625 C 15.253906 -2.351562 14.71875 -1.664062 13.96875 -1.09375 C 13.414062 -0.644531 12.679688 -0.296875 11.765625 -0.046875 C 10.859375 0.191406 9.800781 0.3125 8.59375 0.3125 C 6.269531 0.3125 4.484375 -0.210938 3.234375 -1.265625 C 1.984375 -2.316406 1.21875 -3.921875 0.9375 -6.078125 L 4.59375 -6.40625 C 4.988281 -4.03125 6.34375 -2.84375 8.65625 -2.84375 C 9.875 -2.84375 10.789062 -3.097656 11.40625 -3.609375 C 12.019531 -4.117188 12.328125 -4.722656 12.328125 -5.421875 C 12.328125 -5.921875 12.175781 -6.316406 11.875 -6.609375 C 11.570312 -6.910156 11.09375 -7.171875 10.4375 -7.390625 C 9.78125 -7.609375 8.757812 -7.878906 7.375 -8.203125 C 5.632812 -8.585938 4.238281 -9.234375 3.1875 -10.140625 C 2.132812 -11.046875 1.609375 -12.253906 1.609375 -13.765625 C 1.609375 -14.578125 1.816406 -15.378906 2.234375 -16.171875 C 2.648438 -16.960938 3.367188 -17.625 4.390625 -18.15625 C 5.410156 -18.695312 6.753906 -18.96875 8.421875 -18.96875 Z M 8.421875 -18.96875 "/></g></g></g><g fill="#1e2c54" fill-opacity="1"><g transform="translate(153.333884, 195.749987)"><g><path d="M 14.40625 -18.0625 C 15.1875 -17.726562 15.835938 -17.144531 16.359375 -16.3125 C 16.890625 -15.476562 17.15625 -14.515625 17.15625 -13.421875 C 17.15625 -12.035156 16.722656 -10.867188 15.859375 -9.921875 C 14.992188 -8.972656 13.78125 -8.398438 12.21875 -8.203125 C 12.894531 -7.734375 13.410156 -7.347656 13.765625 -7.046875 C 14.128906 -6.742188 14.519531 -6.316406 14.9375 -5.765625 C 15.363281 -5.222656 15.894531 -4.445312 16.53125 -3.4375 L 18.65625 0 L 14.15625 0 L 11.125 -4.53125 C 10.445312 -5.539062 9.921875 -6.257812 9.546875 -6.6875 C 9.171875 -7.113281 8.773438 -7.40625 8.359375 -7.5625 C 7.941406 -7.71875 7.351562 -7.796875 6.59375 -7.796875 L 5.65625 -7.796875 L 5.65625 0 L 1.90625 0 L 1.90625 -18.65625 L 10.0625 -18.65625 C 10.945312 -18.65625 11.75 -18.613281 12.46875 -18.53125 C 13.1875 -18.457031 13.832031 -18.300781 14.40625 -18.0625 Z M 11.75 -10.96875 C 12.207031 -11.113281 12.570312 -11.375 12.84375 -11.75 C 13.125 -12.132812 13.265625 -12.613281 13.265625 -13.1875 C 13.265625 -14.175781 12.835938 -14.863281 11.984375 -15.25 C 11.765625 -15.351562 11.488281 -15.421875 11.15625 -15.453125 C 10.820312 -15.484375 10.253906 -15.5 9.453125 -15.5 L 5.65625 -15.5 L 5.65625 -10.765625 L 8.96875 -10.765625 C 10.320312 -10.765625 11.25 -10.832031 11.75 -10.96875 Z M 11.75 -10.96875 "/></g></g></g><g fill="#1e2c54" fill-opacity="1"><g transform="translate(173.480743, 195.749987)"><g><path d="M 12.953125 -18.21875 C 13.890625 -17.820312 14.660156 -17.1875 15.265625 -16.3125 C 15.878906 -15.445312 16.1875 -14.316406 16.1875 -12.921875 C 16.1875 -11.566406 15.882812 -10.441406 15.28125 -9.546875 C 14.6875 -8.648438 13.925781 -8.015625 13 -7.640625 C 12.0625 -7.234375 10.566406 -7.03125 8.515625 -7.03125 L 5.65625 -7.03125 L 5.65625 0 L 1.90625 0 L 1.90625 -18.65625 L 8.390625 -18.65625 C 9.585938 -18.65625 10.539062 -18.625 11.25 -18.5625 C 11.96875 -18.507812 12.535156 -18.394531 12.953125 -18.21875 Z M 12.296875 -12.875 C 12.296875 -13.988281 11.75 -14.78125 10.65625 -15.25 C 10.257812 -15.414062 9.414062 -15.5 8.125 -15.5 L 5.65625 -15.5 L 5.65625 -10.1875 L 8.125 -10.1875 C 9.414062 -10.1875 10.429688 -10.363281 11.171875 -10.71875 C 11.921875 -11.082031 12.296875 -11.800781 12.296875 -12.875 Z M 12.296875 -12.875 "/></g></g></g><g fill="#1e2c54" fill-opacity="1"><g transform="translate(192.194155, 195.749987)"><g/></g></g><g fill="#1e2c54" fill-opacity="1"><g transform="translate(200.769264, 195.749987)"><g><path d="M 5.53125 0 L 1.765625 0 L 1.765625 -18.65625 L 5.53125 -18.65625 Z M 5.53125 0 "/></g></g></g><g fill="#1e2c54" fill-opacity="1"><g transform="translate(209.344373, 195.749987)"><g><path d="M 9.640625 -13.8125 C 10.441406 -13.8125 11.132812 -13.675781 11.71875 -13.40625 C 12.3125 -13.132812 12.785156 -12.816406 13.140625 -12.453125 C 13.554688 -12.003906 13.828125 -11.472656 13.953125 -10.859375 C 14.085938 -10.242188 14.15625 -9.5625 14.15625 -8.8125 L 14.15625 0 L 10.578125 0 L 10.578125 -7.375 C 10.578125 -8.625 10.4375 -9.550781 10.15625 -10.15625 C 9.882812 -10.769531 9.296875 -11.078125 8.390625 -11.078125 C 7.535156 -11.078125 6.875 -10.832031 6.40625 -10.34375 C 5.9375 -9.851562 5.660156 -9.289062 5.578125 -8.65625 C 5.523438 -8.238281 5.484375 -7.863281 5.453125 -7.53125 C 5.429688 -7.195312 5.421875 -6.820312 5.421875 -6.40625 L 5.421875 0 L 1.84375 0 L 1.84375 -13.5 L 5.234375 -13.5 L 5.234375 -11.515625 C 5.617188 -12.085938 6.1875 -12.613281 6.9375 -13.09375 C 7.695312 -13.570312 8.597656 -13.8125 9.640625 -13.8125 Z M 9.640625 -13.8125 "/></g></g></g><g fill="#1e2c54" fill-opacity="1"><g transform="translate(226.598286, 195.749987)"><g><path d="M 9.640625 -13.8125 C 10.441406 -13.8125 11.132812 -13.675781 11.71875 -13.40625 C 12.3125 -13.132812 12.785156 -12.816406 13.140625 -12.453125 C 13.554688 -12.003906 13.828125 -11.472656 13.953125 -10.859375 C 14.085938 -10.242188 14.15625 -9.5625 14.15625 -8.8125 L 14.15625 0 L 10.578125 0 L 10.578125 -7.375 C 10.578125 -8.625 10.4375 -9.550781 10.15625 -10.15625 C 9.882812 -10.769531 9.296875 -11.078125 8.390625 -11.078125 C 7.535156 -11.078125 6.875 -10.832031 6.40625 -10.34375 C 5.9375 -9.851562 5.660156 -9.289062 5.578125 -8.65625 C 5.523438 -8.238281 5.484375 -7.863281 5.453125 -7.53125 C 5.429688 -7.195312 5.421875 -6.820312 5.421875 -6.40625 L 5.421875 0 L 1.84375 0 L 1.84375 -13.5 L 5.234375 -13.5 L 5.234375 -11.515625 C 5.617188 -12.085938 6.1875 -12.613281 6.9375 -13.09375 C 7.695312 -13.570312 8.597656 -13.8125 9.640625 -13.8125 Z M 9.640625 -13.8125 "/></g></g></g><g fill="#1e2c54" fill-opacity="1"><g transform="translate(243.852199, 195.749987)"><g><path d="M 8 -13.8125 C 9.457031 -13.8125 10.71875 -13.476562 11.78125 -12.8125 C 12.84375 -12.15625 13.640625 -11.285156 14.171875 -10.203125 C 14.710938 -9.128906 14.984375 -7.992188 14.984375 -6.796875 C 14.984375 -5.546875 14.703125 -4.378906 14.140625 -3.296875 C 13.578125 -2.210938 12.769531 -1.335938 11.71875 -0.671875 C 10.664062 -0.015625 9.4375 0.3125 8.03125 0.3125 C 6.832031 0.3125 5.703125 0.0664062 4.640625 -0.421875 C 3.578125 -0.921875 2.710938 -1.710938 2.046875 -2.796875 C 1.378906 -3.890625 1.046875 -5.269531 1.046875 -6.9375 C 1.046875 -8.09375 1.304688 -9.195312 1.828125 -10.25 C 2.359375 -11.300781 3.148438 -12.15625 4.203125 -12.8125 C 5.253906 -13.476562 6.519531 -13.8125 8 -13.8125 Z M 4.71875 -6.75 C 4.71875 -5.394531 5.035156 -4.363281 5.671875 -3.65625 C 6.304688 -2.957031 7.082031 -2.609375 8 -2.609375 C 8.914062 -2.609375 9.695312 -2.953125 10.34375 -3.640625 C 10.988281 -4.335938 11.3125 -5.382812 11.3125 -6.78125 C 11.3125 -8.0625 11 -9.066406 10.375 -9.796875 C 9.757812 -10.523438 8.957031 -10.890625 7.96875 -10.890625 C 7.070312 -10.890625 6.304688 -10.53125 5.671875 -9.8125 C 5.035156 -9.101562 4.71875 -8.082031 4.71875 -6.75 Z M 4.71875 -6.75 "/></g></g></g><g fill="#1e2c54" fill-opacity="1"><g transform="translate(261.106112, 195.749987)"><g><path d="M 6.40625 -6.703125 L 6.90625 -5.109375 C 7.007812 -4.722656 7.085938 -4.460938 7.140625 -4.328125 L 7.1875 -4.328125 C 7.445312 -5.296875 7.691406 -6.0625 7.921875 -6.625 L 10.5 -13.5 L 14.171875 -13.5 L 8.8125 0 L 5.578125 0 L 0.125 -13.5 L 3.890625 -13.5 Z M 6.40625 -6.703125 "/></g></g></g><g fill="#1e2c54" fill-opacity="1"><g transform="translate(276.926595, 195.749987)"><g><path d="M 7.140625 -13.8125 C 8.859375 -13.8125 10.132812 -13.585938 10.96875 -13.140625 C 11.800781 -12.703125 12.328125 -12.125 12.546875 -11.40625 C 12.765625 -10.6875 12.863281 -9.734375 12.84375 -8.546875 L 12.828125 -4.609375 C 12.804688 -3.378906 12.847656 -2.484375 12.953125 -1.921875 C 13.054688 -1.367188 13.273438 -0.726562 13.609375 0 L 10.09375 0 C 10 -0.1875 9.835938 -0.679688 9.609375 -1.484375 C 8.972656 -0.859375 8.3125 -0.398438 7.625 -0.109375 C 6.9375 0.171875 6.203125 0.3125 5.421875 0.3125 C 4.085938 0.3125 3.003906 -0.0546875 2.171875 -0.796875 C 1.347656 -1.535156 0.9375 -2.492188 0.9375 -3.671875 C 0.9375 -4.660156 1.179688 -5.445312 1.671875 -6.03125 C 2.171875 -6.613281 2.773438 -7.035156 3.484375 -7.296875 C 4.203125 -7.554688 5.046875 -7.78125 6.015625 -7.96875 C 7.515625 -8.25 8.617188 -8.53125 9.328125 -8.8125 L 9.328125 -9.375 C 9.328125 -9.96875 9.148438 -10.398438 8.796875 -10.671875 C 8.453125 -10.941406 7.820312 -11.078125 6.90625 -11.078125 C 6.195312 -11.078125 5.664062 -10.929688 5.3125 -10.640625 C 4.96875 -10.359375 4.707031 -9.9375 4.53125 -9.375 L 1.296875 -9.984375 C 1.648438 -11.304688 2.273438 -12.273438 3.171875 -12.890625 C 4.078125 -13.503906 5.398438 -13.8125 7.140625 -13.8125 Z M 7.09375 -5.921875 L 6.484375 -5.78125 C 5.171875 -5.507812 4.515625 -4.9375 4.515625 -4.0625 C 4.515625 -3.539062 4.695312 -3.101562 5.0625 -2.75 C 5.4375 -2.394531 5.910156 -2.21875 6.484375 -2.21875 C 6.953125 -2.21875 7.421875 -2.335938 7.890625 -2.578125 C 8.359375 -2.816406 8.722656 -3.140625 8.984375 -3.546875 C 9.210938 -3.910156 9.328125 -4.535156 9.328125 -5.421875 L 9.328125 -6.484375 C 8.648438 -6.273438 7.90625 -6.085938 7.09375 -5.921875 Z M 7.09375 -5.921875 "/></g></g></g><g fill="#1e2c54" fill-opacity="1"><g transform="translate(292.747079, 195.749987)"><g><path d="M 5.625 -13.5 L 8.046875 -13.5 L 8.046875 -10.65625 L 5.625 -10.65625 L 5.625 -4.71875 C 5.625 -4.144531 5.644531 -3.71875 5.6875 -3.4375 C 5.738281 -3.15625 5.832031 -2.953125 5.96875 -2.828125 C 6.101562 -2.710938 6.320312 -2.65625 6.625 -2.65625 C 6.988281 -2.65625 7.460938 -2.769531 8.046875 -3 L 8.359375 -0.234375 C 7.992188 -0.0546875 7.550781 0.078125 7.03125 0.171875 C 6.507812 0.265625 6.015625 0.3125 5.546875 0.3125 C 4.867188 0.3125 4.269531 0.203125 3.75 -0.015625 C 3.226562 -0.242188 2.847656 -0.550781 2.609375 -0.9375 C 2.347656 -1.375 2.1875 -1.851562 2.125 -2.375 C 2.0625 -2.90625 2.03125 -3.570312 2.03125 -4.375 L 2.03125 -10.65625 L 0.390625 -10.65625 L 0.390625 -13.5 L 2.03125 -13.5 L 2.03125 -16.1875 L 5.625 -18.296875 Z M 5.625 -13.5 "/></g></g></g><g fill="#1e2c54" fill-opacity="1"><g transform="translate(302.755623, 195.749987)"><g><path d="M 5.453125 -15.34375 L 1.875 -15.34375 L 1.875 -18.65625 L 5.453125 -18.65625 Z M 5.453125 0 L 1.875 0 L 1.875 -13.5 L 5.453125 -13.5 Z M 5.453125 0 "/></g></g></g><g fill="#1e2c54" fill-opacity="1"><g transform="translate(311.330726, 195.749987)"><g><path d="M 8 -13.8125 C 9.457031 -13.8125 10.71875 -13.476562 11.78125 -12.8125 C 12.84375 -12.15625 13.640625 -11.285156 14.171875 -10.203125 C 14.710938 -9.128906 14.984375 -7.992188 14.984375 -6.796875 C 14.984375 -5.546875 14.703125 -4.378906 14.140625 -3.296875 C 13.578125 -2.210938 12.769531 -1.335938 11.71875 -0.671875 C 10.664062 -0.015625 9.4375 0.3125 8.03125 0.3125 C 6.832031 0.3125 5.703125 0.0664062 4.640625 -0.421875 C 3.578125 -0.921875 2.710938 -1.710938 2.046875 -2.796875 C 1.378906 -3.890625 1.046875 -5.269531 1.046875 -6.9375 C 1.046875 -8.09375 1.304688 -9.195312 1.828125 -10.25 C 2.359375 -11.300781 3.148438 -12.15625 4.203125 -12.8125 C 5.253906 -13.476562 6.519531 -13.8125 8 -13.8125 Z M 4.71875 -6.75 C 4.71875 -5.394531 5.035156 -4.363281 5.671875 -3.65625 C 6.304688 -2.957031 7.082031 -2.609375 8 -2.609375 C 8.914062 -2.609375 9.695312 -2.953125 10.34375 -3.640625 C 10.988281 -4.335938 11.3125 -5.382812 11.3125 -6.78125 C 11.3125 -8.0625 11 -9.066406 10.375 -9.796875 C 9.757812 -10.523438 8.957031 -10.890625 7.96875 -10.890625 C 7.070312 -10.890625 6.304688 -10.53125 5.671875 -9.8125 C 5.035156 -9.101562 4.71875 -8.082031 4.71875 -6.75 Z M 4.71875 -6.75 "/></g></g></g><g fill="#1e2c54" fill-opacity="1"><g transform="translate(328.584639, 195.749987)"><g><path d="M 9.640625 -13.8125 C 10.441406 -13.8125 11.132812 -13.675781 11.71875 -13.40625 C 12.3125 -13.132812 12.785156 -12.816406 13.140625 -12.453125 C 13.554688 -12.003906 13.828125 -11.472656 13.953125 -10.859375 C 14.085938 -10.242188 14.15625 -9.5625 14.15625 -8.8125 L 14.15625 0 L 10.578125 0 L 10.578125 -7.375 C 10.578125 -8.625 10.4375 -9.550781 10.15625 -10.15625 C 9.882812 -10.769531 9.296875 -11.078125 8.390625 -11.078125 C 7.535156 -11.078125 6.875 -10.832031 6.40625 -10.34375 C 5.9375 -9.851562 5.660156 -9.289062 5.578125 -8.65625 C 5.523438 -8.238281 5.484375 -7.863281 5.453125 -7.53125 C 5.429688 -7.195312 5.421875 -6.820312 5.421875 -6.40625 L 5.421875 0 L 1.84375 0 L 1.84375 -13.5 L 5.234375 -13.5 L 5.234375 -11.515625 C 5.617188 -12.085938 6.1875 -12.613281 6.9375 -13.09375 C 7.695312 -13.570312 8.597656 -13.8125 9.640625 -13.8125 Z M 9.640625 -13.8125 "/></g></g></g><g fill="#1e2c54" fill-opacity="1"><g transform="translate(345.838552, 195.749987)"><g><path d="M 6.796875 -13.8125 C 8.484375 -13.8125 9.804688 -13.53125 10.765625 -12.96875 C 11.734375 -12.414062 12.398438 -11.507812 12.765625 -10.25 L 9.375 -9.609375 C 9.21875 -10.171875 8.9375 -10.585938 8.53125 -10.859375 C 8.125 -11.128906 7.554688 -11.265625 6.828125 -11.265625 C 5.210938 -11.265625 4.40625 -10.890625 4.40625 -10.140625 C 4.40625 -9.773438 4.671875 -9.484375 5.203125 -9.265625 C 5.734375 -9.046875 6.5 -8.820312 7.5 -8.59375 C 8.738281 -8.320312 9.75 -8.039062 10.53125 -7.75 C 11.3125 -7.46875 11.953125 -7.039062 12.453125 -6.46875 C 12.960938 -5.90625 13.21875 -5.15625 13.21875 -4.21875 C 13.21875 -3.457031 13.003906 -2.734375 12.578125 -2.046875 C 12.148438 -1.359375 11.472656 -0.789062 10.546875 -0.34375 C 9.628906 0.09375 8.46875 0.3125 7.0625 0.3125 C 5.476562 0.3125 4.082031 -0.0234375 2.875 -0.703125 C 1.664062 -1.378906 0.90625 -2.429688 0.59375 -3.859375 L 4.171875 -4.40625 C 4.503906 -2.957031 5.46875 -2.234375 7.0625 -2.234375 C 7.6875 -2.234375 8.269531 -2.34375 8.8125 -2.5625 C 9.363281 -2.78125 9.640625 -3.171875 9.640625 -3.734375 C 9.640625 -4.097656 9.515625 -4.351562 9.265625 -4.5 C 9.015625 -4.644531 8.609375 -4.78125 8.046875 -4.90625 C 6.398438 -5.269531 5.113281 -5.609375 4.1875 -5.921875 C 3.269531 -6.234375 2.523438 -6.679688 1.953125 -7.265625 C 1.378906 -7.859375 1.09375 -8.660156 1.09375 -9.671875 C 1.09375 -11.078125 1.628906 -12.117188 2.703125 -12.796875 C 3.785156 -13.472656 5.148438 -13.8125 6.796875 -13.8125 Z M 6.796875 -13.8125 "/></g></g></g><path fill="#1e2c54" d="M 56.386719 194.925781 C 55.949219 194.925781 55.65625 194.78125 55.367188 194.488281 L 49.539062 188.660156 C 48.957031 188.078125 48.957031 187.203125 49.539062 186.621094 L 55.367188 180.796875 C 55.949219 180.214844 56.824219 180.214844 57.40625 180.796875 C 57.988281 181.378906 57.988281 182.253906 57.40625 182.835938 L 52.597656 187.640625 L 57.40625 192.449219 C 57.988281 193.03125 57.988281 193.90625 57.40625 194.488281 C 57.113281 194.78125 56.824219 194.925781 56.386719 194.925781 Z M 56.386719 194.925781 " fill-opacity="1" fill-rule="nonzero"/><g clip-path="url(#f53eac4664)"><path fill="#1e2c54" d="M 70.953125 194.925781 C 70.515625 194.925781 70.222656 194.78125 69.933594 194.488281 C 69.351562 193.90625 69.351562 193.03125 69.933594 192.449219 L 74.738281 187.640625 L 69.933594 182.835938 C 69.351562 182.253906 69.351562 181.378906 69.933594 180.796875 C 70.515625 180.214844 71.390625 180.214844 71.972656 180.796875 L 77.796875 186.621094 C 78.378906 187.203125 78.378906 188.078125 77.796875 188.660156 L 71.972656 194.488281 C 71.679688 194.78125 71.390625 194.925781 70.953125 194.925781 Z M 70.953125 194.925781 " fill-opacity="1" fill-rule="nonzero"/></g><g clip-path="url(#b8e3ba9111)"><path fill="#1e2c54" d="M 60.753906 197.839844 C 60.609375 197.839844 60.464844 197.839844 60.320312 197.691406 C 59.589844 197.402344 59.152344 196.671875 59.445312 195.800781 L 65.269531 178.320312 C 65.5625 177.589844 66.289062 177.15625 67.164062 177.445312 C 67.894531 177.738281 68.332031 178.464844 68.039062 179.339844 L 62.210938 196.820312 C 61.921875 197.402344 61.339844 197.839844 60.753906 197.839844 Z M 60.753906 197.839844 " fill-opacity="1" fill-rule="nonzero"/></g></svg>