
<svg xmlns="http://www.w3.org/2000/svg" xmlns:xlink="http://www.w3.org/1999/xlink" width="346" zoomAndPan="magnify" viewBox="0 0 424.5 73.499998" height="60" preserveAspectRatio="xMidYMid meet" version="1.0"><defs><g/><clipPath id="c0e9bb389c"><path d="M 2.785156 0.304688 L 75.277344 0.304688 L 75.277344 72.796875 L 2.785156 72.796875 Z M 2.785156 0.304688 " clip-rule="nonzero"/></clipPath><clipPath id="6ae1bd18ba"><path d="M 24.476562 29 L 34 29 L 34 44 L 24.476562 44 Z M 24.476562 29 " clip-rule="nonzero"/></clipPath><clipPath id="63db5c3653"><path d="M 44 29 L 53.65625 29 L 53.65625 44 L 44 44 Z M 44 29 " clip-rule="nonzero"/></clipPath><clipPath id="a595e60d85"><path d="M 34 26.347656 L 44 26.347656 L 44 46.867188 L 34 46.867188 Z M 34 26.347656 " clip-rule="nonzero"/></clipPath></defs><g clip-path="url(#c0e9bb389c)"><path fill="#fd004d" d="M 74.875 42.484375 C 75.023438 37.605469 75.023438 37.59375 75.171875 32.714844 L 67.613281 29.765625 C 66.523438 26.886719 65.976562 25.445312 64.886719 22.566406 L 68.59375 15.34375 C 65.246094 11.800781 65.238281 11.789062 61.890625 8.234375 L 54.46875 11.488281 L 47.457031 8.324219 L 44.964844 0.605469 L 35.203125 0.304688 L 32.25 7.863281 C 29.378906 8.953125 27.925781 9.5 25.058594 10.589844 L 17.835938 6.886719 C 14.28125 10.226562 14.269531 10.234375 10.714844 13.582031 L 13.972656 21.011719 C 12.71875 23.808594 12.078125 25.226562 10.8125 28.023438 L 3.085938 30.515625 C 2.9375 35.394531 2.9375 35.402344 2.785156 40.273438 L 10.34375 43.230469 C 11.4375 46.101562 11.980469 47.554688 13.070312 50.433594 L 9.371094 57.644531 C 12.71875 61.199219 12.726562 61.210938 16.0625 64.765625 L 23.492188 61.507812 C 26.300781 62.761719 27.714844 63.398438 30.515625 64.664062 L 32.996094 72.394531 L 42.769531 72.691406 L 45.714844 65.132812 C 48.59375 64.042969 50.039062 63.496094 52.917969 62.40625 L 60.136719 66.113281 L 67.25 59.417969 L 63.992188 51.988281 C 65.265625 49.191406 65.894531 47.765625 67.160156 44.96875 Z M 38.980469 57.734375 C 38.285156 57.734375 37.589844 57.699219 36.898438 57.632812 C 36.207031 57.5625 35.519531 57.460938 34.835938 57.324219 C 34.15625 57.191406 33.480469 57.023438 32.816406 56.820312 C 32.152344 56.617188 31.496094 56.382812 30.855469 56.117188 C 30.210938 55.851562 29.582031 55.554688 28.96875 55.226562 C 28.355469 54.898438 27.761719 54.542969 27.183594 54.15625 C 26.605469 53.769531 26.046875 53.355469 25.511719 52.914062 C 24.972656 52.472656 24.457031 52.007812 23.964844 51.515625 C 23.472656 51.023438 23.007812 50.507812 22.566406 49.96875 C 22.125 49.433594 21.710938 48.875 21.324219 48.296875 C 20.9375 47.71875 20.582031 47.121094 20.253906 46.507812 C 19.925781 45.894531 19.628906 45.269531 19.363281 44.625 C 19.097656 43.984375 18.863281 43.328125 18.660156 42.664062 C 18.460938 42 18.289062 41.324219 18.15625 40.640625 C 18.019531 39.960938 17.917969 39.273438 17.851562 38.582031 C 17.78125 37.890625 17.746094 37.195312 17.746094 36.5 C 17.746094 35.804688 17.78125 35.109375 17.851562 34.417969 C 17.917969 33.726562 18.019531 33.039062 18.15625 32.359375 C 18.292969 31.675781 18.460938 31 18.660156 30.335938 C 18.863281 29.671875 19.097656 29.015625 19.363281 28.375 C 19.628906 27.730469 19.925781 27.105469 20.253906 26.492188 C 20.582031 25.878906 20.941406 25.28125 21.324219 24.703125 C 21.710938 24.125 22.125 23.566406 22.566406 23.03125 C 23.007812 22.492188 23.476562 21.976562 23.964844 21.484375 C 24.457031 20.996094 24.972656 20.527344 25.511719 20.085938 C 26.046875 19.644531 26.605469 19.230469 27.183594 18.84375 C 27.761719 18.457031 28.359375 18.101562 28.972656 17.773438 C 29.585938 17.445312 30.210938 17.148438 30.855469 16.882812 C 31.496094 16.617188 32.152344 16.382812 32.816406 16.179688 C 33.484375 15.980469 34.15625 15.808594 34.839844 15.675781 C 35.519531 15.539062 36.207031 15.4375 36.898438 15.367188 C 37.589844 15.300781 38.285156 15.265625 38.980469 15.265625 C 39.675781 15.265625 40.371094 15.300781 41.0625 15.367188 C 41.753906 15.4375 42.441406 15.539062 43.125 15.675781 C 43.804688 15.808594 44.480469 15.980469 45.144531 16.179688 C 45.808594 16.382812 46.464844 16.617188 47.105469 16.882812 C 47.75 17.148438 48.375 17.445312 48.988281 17.773438 C 49.601562 18.101562 50.199219 18.457031 50.777344 18.84375 C 51.355469 19.230469 51.914062 19.644531 52.453125 20.085938 C 52.988281 20.527344 53.503906 20.992188 53.996094 21.484375 C 54.488281 21.976562 54.953125 22.492188 55.394531 23.027344 C 55.835938 23.566406 56.25 24.125 56.636719 24.703125 C 57.023438 25.28125 57.378906 25.875 57.707031 26.488281 C 58.035156 27.101562 58.332031 27.730469 58.597656 28.375 C 58.863281 29.015625 59.097656 29.667969 59.300781 30.335938 C 59.503906 31 59.671875 31.675781 59.808594 32.355469 C 59.941406 33.039062 60.042969 33.726562 60.113281 34.417969 C 60.179688 35.109375 60.214844 35.804688 60.214844 36.5 C 60.214844 37.195312 60.179688 37.886719 60.113281 38.578125 C 60.042969 39.273438 59.941406 39.960938 59.804688 40.640625 C 59.671875 41.324219 59.5 41.996094 59.300781 42.664062 C 59.097656 43.328125 58.863281 43.980469 58.597656 44.625 C 58.332031 45.265625 58.035156 45.894531 57.707031 46.507812 C 57.378906 47.121094 57.019531 47.71875 56.636719 48.296875 C 56.25 48.875 55.835938 49.429688 55.394531 49.96875 C 54.953125 50.507812 54.484375 51.019531 53.992188 51.511719 C 53.503906 52.003906 52.988281 52.472656 52.449219 52.914062 C 51.914062 53.355469 51.355469 53.765625 50.777344 54.152344 C 50.199219 54.539062 49.601562 54.898438 48.988281 55.226562 C 48.375 55.554688 47.746094 55.851562 47.105469 56.117188 C 46.464844 56.382812 45.808594 56.617188 45.144531 56.820312 C 44.476562 57.019531 43.804688 57.191406 43.121094 57.324219 C 42.441406 57.460938 41.753906 57.5625 41.0625 57.632812 C 40.367188 57.699219 39.675781 57.734375 38.980469 57.734375 Z M 38.980469 57.734375 " fill-opacity="1" fill-rule="nonzero"/></g><g clip-path="url(#6ae1bd18ba)"><path fill="#fd004d" d="M 31.832031 43.792969 C 31.40625 43.792969 31.117188 43.648438 30.832031 43.363281 L 25.113281 37.644531 C 24.542969 37.070312 24.542969 36.214844 25.113281 35.640625 L 30.832031 29.921875 C 31.40625 29.351562 32.261719 29.351562 32.835938 29.921875 C 33.40625 30.496094 33.40625 31.351562 32.835938 31.925781 L 28.117188 36.644531 L 32.835938 41.363281 C 33.40625 41.933594 33.40625 42.792969 32.835938 43.363281 C 32.546875 43.648438 32.261719 43.792969 31.832031 43.792969 Z M 31.832031 43.792969 " fill-opacity="1" fill-rule="nonzero"/></g><g clip-path="url(#63db5c3653)"><path fill="#fd004d" d="M 46.132812 43.792969 C 45.703125 43.792969 45.417969 43.648438 45.128906 43.363281 C 44.558594 42.792969 44.558594 41.933594 45.128906 41.363281 L 49.847656 36.644531 L 45.128906 31.925781 C 44.558594 31.351562 44.558594 30.496094 45.128906 29.921875 C 45.703125 29.351562 46.558594 29.351562 47.132812 29.921875 L 52.851562 35.640625 C 53.421875 36.214844 53.421875 37.070312 52.851562 37.644531 L 47.132812 43.363281 C 46.847656 43.648438 46.558594 43.792969 46.132812 43.792969 Z M 46.132812 43.792969 " fill-opacity="1" fill-rule="nonzero"/></g><g clip-path="url(#a595e60d85)"><path fill="#fd004d" d="M 36.121094 46.652344 C 35.980469 46.652344 35.835938 46.652344 35.695312 46.507812 C 34.980469 46.222656 34.550781 45.507812 34.835938 44.648438 L 40.554688 27.492188 C 40.839844 26.777344 41.554688 26.347656 42.414062 26.632812 C 43.128906 26.921875 43.558594 27.636719 43.273438 28.492188 L 37.550781 45.652344 C 37.265625 46.222656 36.695312 46.652344 36.121094 46.652344 Z M 36.121094 46.652344 " fill-opacity="1" fill-rule="nonzero"/></g><g fill="#274165" fill-opacity="1"><g transform="translate(90.541578, 45.440875)"><g><path d="M 8.75 -4.8125 L 13.28125 -18.53125 L 17.25 -18.53125 L 10.609375 0 L 6.609375 0 L 0 -18.53125 L 4.0625 -18.53125 Z M 8.75 -4.8125 "/></g></g></g><g fill="#274165" fill-opacity="1"><g transform="translate(109.12855, 45.440875)"><g><path d="M 8.359375 -18.84375 C 10.410156 -18.84375 12.085938 -18.382812 13.390625 -17.46875 C 14.703125 -16.5625 15.390625 -15.148438 15.453125 -13.234375 L 11.703125 -13.078125 C 11.578125 -13.941406 11.257812 -14.601562 10.75 -15.0625 C 10.25 -15.53125 9.4375 -15.765625 8.3125 -15.765625 C 7.53125 -15.765625 6.8125 -15.625 6.15625 -15.34375 C 5.5 -15.070312 5.171875 -14.597656 5.171875 -13.921875 C 5.171875 -13.359375 5.460938 -12.90625 6.046875 -12.5625 C 6.640625 -12.226562 7.6875 -11.890625 9.1875 -11.546875 C 10.582031 -11.222656 11.734375 -10.875 12.640625 -10.5 C 13.546875 -10.125 14.328125 -9.523438 14.984375 -8.703125 C 15.640625 -7.890625 15.96875 -6.785156 15.96875 -5.390625 C 15.96875 -4.679688 15.800781 -3.925781 15.46875 -3.125 C 15.144531 -2.332031 14.613281 -1.65625 13.875 -1.09375 C 13.320312 -0.644531 12.59375 -0.296875 11.6875 -0.046875 C 10.78125 0.191406 9.734375 0.3125 8.546875 0.3125 C 6.234375 0.3125 4.453125 -0.207031 3.203125 -1.25 C 1.960938 -2.300781 1.207031 -3.894531 0.9375 -6.03125 L 4.5625 -6.375 C 4.957031 -4.007812 6.300781 -2.828125 8.59375 -2.828125 C 9.800781 -2.828125 10.710938 -3.078125 11.328125 -3.578125 C 11.941406 -4.085938 12.25 -4.691406 12.25 -5.390625 C 12.25 -5.890625 12.097656 -6.285156 11.796875 -6.578125 C 11.492188 -6.867188 11.015625 -7.117188 10.359375 -7.328125 C 9.710938 -7.546875 8.703125 -7.820312 7.328125 -8.15625 C 5.597656 -8.53125 4.210938 -9.164062 3.171875 -10.0625 C 2.128906 -10.96875 1.609375 -12.171875 1.609375 -13.671875 C 1.609375 -14.484375 1.8125 -15.28125 2.21875 -16.0625 C 2.632812 -16.851562 3.347656 -17.515625 4.359375 -18.046875 C 5.367188 -18.578125 6.703125 -18.84375 8.359375 -18.84375 Z M 8.359375 -18.84375 "/></g></g></g><g fill="#274165" fill-opacity="1"><g transform="translate(127.715522, 45.440875)"><g><path d="M 14.3125 -17.9375 C 15.09375 -17.613281 15.738281 -17.035156 16.25 -16.203125 C 16.769531 -15.378906 17.03125 -14.421875 17.03125 -13.328125 C 17.03125 -11.953125 16.601562 -10.789062 15.75 -9.84375 C 14.894531 -8.90625 13.691406 -8.34375 12.140625 -8.15625 C 12.816406 -7.6875 13.332031 -7.300781 13.6875 -7 C 14.039062 -6.695312 14.425781 -6.273438 14.84375 -5.734375 C 15.269531 -5.191406 15.796875 -4.421875 16.421875 -3.421875 L 18.53125 0 L 14.0625 0 L 11.0625 -4.5 C 10.382812 -5.5 9.859375 -6.210938 9.484375 -6.640625 C 9.117188 -7.066406 8.726562 -7.351562 8.3125 -7.5 C 7.894531 -7.65625 7.304688 -7.734375 6.546875 -7.734375 L 5.625 -7.734375 L 5.625 0 L 1.890625 0 L 1.890625 -18.53125 L 10 -18.53125 C 10.875 -18.53125 11.671875 -18.488281 12.390625 -18.40625 C 13.109375 -18.332031 13.75 -18.175781 14.3125 -17.9375 Z M 11.671875 -10.90625 C 12.117188 -11.039062 12.476562 -11.296875 12.75 -11.671875 C 13.03125 -12.054688 13.171875 -12.53125 13.171875 -13.09375 C 13.171875 -14.082031 12.75 -14.765625 11.90625 -15.140625 C 11.6875 -15.242188 11.410156 -15.3125 11.078125 -15.34375 C 10.753906 -15.382812 10.191406 -15.40625 9.390625 -15.40625 L 5.625 -15.40625 L 5.625 -10.6875 L 8.90625 -10.6875 C 10.25 -10.6875 11.171875 -10.757812 11.671875 -10.90625 Z M 11.671875 -10.90625 "/></g></g></g><g fill="#274165" fill-opacity="1"><g transform="translate(147.726253, 45.440875)"><g><path d="M 12.875 -18.09375 C 13.800781 -17.695312 14.566406 -17.066406 15.171875 -16.203125 C 15.773438 -15.335938 16.078125 -14.21875 16.078125 -12.84375 C 16.078125 -11.5 15.78125 -10.378906 15.1875 -9.484375 C 14.59375 -8.597656 13.835938 -7.96875 12.921875 -7.59375 C 11.984375 -7.1875 10.5 -6.984375 8.46875 -6.984375 L 5.625 -6.984375 L 5.625 0 L 1.890625 0 L 1.890625 -18.53125 L 8.34375 -18.53125 C 9.53125 -18.53125 10.476562 -18.5 11.1875 -18.4375 C 11.894531 -18.382812 12.457031 -18.269531 12.875 -18.09375 Z M 12.21875 -12.796875 C 12.21875 -13.898438 11.675781 -14.679688 10.59375 -15.140625 C 10.195312 -15.316406 9.359375 -15.40625 8.078125 -15.40625 L 5.625 -15.40625 L 5.625 -10.125 L 8.078125 -10.125 C 9.359375 -10.125 10.367188 -10.300781 11.109375 -10.65625 C 11.847656 -11.007812 12.21875 -11.722656 12.21875 -12.796875 Z M 12.21875 -12.796875 "/></g></g></g><g fill="#274165" fill-opacity="1"><g transform="translate(166.313224, 45.440875)"><g/></g></g><g fill="#274165" fill-opacity="1"><g transform="translate(174.830392, 45.440875)"><g><path d="M 5.484375 0 L 1.765625 0 L 1.765625 -18.53125 L 5.484375 -18.53125 Z M 5.484375 0 "/></g></g></g><g fill="#274165" fill-opacity="1"><g transform="translate(183.347561, 45.440875)"><g><path d="M 9.578125 -13.71875 C 10.367188 -13.71875 11.054688 -13.582031 11.640625 -13.3125 C 12.234375 -13.050781 12.703125 -12.738281 13.046875 -12.375 C 13.460938 -11.925781 13.734375 -11.394531 13.859375 -10.78125 C 13.992188 -10.164062 14.0625 -9.488281 14.0625 -8.75 L 14.0625 0 L 10.515625 0 L 10.515625 -7.328125 C 10.515625 -8.566406 10.375 -9.488281 10.09375 -10.09375 C 9.820312 -10.695312 9.238281 -11 8.34375 -11 C 7.488281 -11 6.828125 -10.753906 6.359375 -10.265625 C 5.898438 -9.785156 5.628906 -9.226562 5.546875 -8.59375 C 5.492188 -8.175781 5.453125 -7.800781 5.421875 -7.46875 C 5.398438 -7.144531 5.390625 -6.78125 5.390625 -6.375 L 5.390625 0 L 1.84375 0 L 1.84375 -13.40625 L 5.203125 -13.40625 L 5.203125 -11.4375 C 5.585938 -12.007812 6.15625 -12.53125 6.90625 -13 C 7.65625 -13.476562 8.546875 -13.71875 9.578125 -13.71875 Z M 9.578125 -13.71875 "/></g></g></g><g fill="#274165" fill-opacity="1"><g transform="translate(200.484894, 45.440875)"><g><path d="M 9.578125 -13.71875 C 10.367188 -13.71875 11.054688 -13.582031 11.640625 -13.3125 C 12.234375 -13.050781 12.703125 -12.738281 13.046875 -12.375 C 13.460938 -11.925781 13.734375 -11.394531 13.859375 -10.78125 C 13.992188 -10.164062 14.0625 -9.488281 14.0625 -8.75 L 14.0625 0 L 10.515625 0 L 10.515625 -7.328125 C 10.515625 -8.566406 10.375 -9.488281 10.09375 -10.09375 C 9.820312 -10.695312 9.238281 -11 8.34375 -11 C 7.488281 -11 6.828125 -10.753906 6.359375 -10.265625 C 5.898438 -9.785156 5.628906 -9.226562 5.546875 -8.59375 C 5.492188 -8.175781 5.453125 -7.800781 5.421875 -7.46875 C 5.398438 -7.144531 5.390625 -6.78125 5.390625 -6.375 L 5.390625 0 L 1.84375 0 L 1.84375 -13.40625 L 5.203125 -13.40625 L 5.203125 -11.4375 C 5.585938 -12.007812 6.15625 -12.53125 6.90625 -13 C 7.65625 -13.476562 8.546875 -13.71875 9.578125 -13.71875 Z M 9.578125 -13.71875 "/></g></g></g><g fill="#274165" fill-opacity="1"><g transform="translate(217.622226, 45.440875)"><g><path d="M 7.953125 -13.71875 C 9.398438 -13.71875 10.648438 -13.390625 11.703125 -12.734375 C 12.753906 -12.078125 13.546875 -11.210938 14.078125 -10.140625 C 14.617188 -9.078125 14.890625 -7.945312 14.890625 -6.75 C 14.890625 -5.507812 14.609375 -4.347656 14.046875 -3.265625 C 13.484375 -2.191406 12.679688 -1.328125 11.640625 -0.671875 C 10.597656 -0.015625 9.375 0.3125 7.96875 0.3125 C 6.78125 0.3125 5.660156 0.0664062 4.609375 -0.421875 C 3.554688 -0.921875 2.695312 -1.707031 2.03125 -2.78125 C 1.363281 -3.863281 1.03125 -5.234375 1.03125 -6.890625 C 1.03125 -8.046875 1.289062 -9.144531 1.8125 -10.1875 C 2.34375 -11.226562 3.128906 -12.078125 4.171875 -12.734375 C 5.222656 -13.390625 6.484375 -13.71875 7.953125 -13.71875 Z M 4.6875 -6.703125 C 4.6875 -5.359375 5 -4.335938 5.625 -3.640625 C 6.257812 -2.941406 7.035156 -2.59375 7.953125 -2.59375 C 8.867188 -2.59375 9.644531 -2.9375 10.28125 -3.625 C 10.914062 -4.3125 11.234375 -5.347656 11.234375 -6.734375 C 11.234375 -8.003906 10.925781 -9.003906 10.3125 -9.734375 C 9.695312 -10.460938 8.898438 -10.828125 7.921875 -10.828125 C 7.023438 -10.828125 6.257812 -10.472656 5.625 -9.765625 C 5 -9.054688 4.6875 -8.035156 4.6875 -6.703125 Z M 4.6875 -6.703125 "/></g></g></g><g fill="#274165" fill-opacity="1"><g transform="translate(234.759559, 45.440875)"><g><path d="M 6.375 -6.65625 L 6.859375 -5.078125 C 6.960938 -4.691406 7.039062 -4.429688 7.09375 -4.296875 L 7.140625 -4.296875 C 7.398438 -5.265625 7.644531 -6.023438 7.875 -6.578125 L 10.4375 -13.40625 L 14.078125 -13.40625 L 8.75 0 L 5.546875 0 L 0.125 -13.40625 L 3.859375 -13.40625 Z M 6.375 -6.65625 "/></g></g></g><g fill="#274165" fill-opacity="1"><g transform="translate(250.473147, 45.440875)"><g><path d="M 7.09375 -13.71875 C 8.800781 -13.71875 10.066406 -13.5 10.890625 -13.0625 C 11.722656 -12.625 12.25 -12.046875 12.46875 -11.328125 C 12.6875 -10.609375 12.785156 -9.660156 12.765625 -8.484375 L 12.734375 -4.578125 C 12.722656 -3.359375 12.765625 -2.472656 12.859375 -1.921875 C 12.960938 -1.367188 13.179688 -0.726562 13.515625 0 L 10.015625 0 C 9.929688 -0.1875 9.773438 -0.675781 9.546875 -1.46875 C 8.910156 -0.851562 8.25 -0.398438 7.5625 -0.109375 C 6.882812 0.171875 6.160156 0.3125 5.390625 0.3125 C 4.054688 0.3125 2.976562 -0.0507812 2.15625 -0.78125 C 1.34375 -1.519531 0.9375 -2.476562 0.9375 -3.65625 C 0.9375 -4.632812 1.179688 -5.410156 1.671875 -5.984375 C 2.160156 -6.566406 2.757812 -6.988281 3.46875 -7.25 C 4.175781 -7.507812 5.015625 -7.734375 5.984375 -7.921875 C 7.460938 -8.203125 8.554688 -8.476562 9.265625 -8.75 L 9.265625 -9.328125 C 9.265625 -9.910156 9.09375 -10.332031 8.75 -10.59375 C 8.40625 -10.863281 7.773438 -11 6.859375 -11 C 6.148438 -11 5.625 -10.859375 5.28125 -10.578125 C 4.9375 -10.296875 4.675781 -9.878906 4.5 -9.328125 L 1.296875 -9.921875 C 1.640625 -11.234375 2.257812 -12.191406 3.15625 -12.796875 C 4.050781 -13.410156 5.363281 -13.71875 7.09375 -13.71875 Z M 7.046875 -5.875 L 6.453125 -5.75 C 5.140625 -5.46875 4.484375 -4.894531 4.484375 -4.03125 C 4.484375 -3.519531 4.664062 -3.085938 5.03125 -2.734375 C 5.40625 -2.378906 5.878906 -2.203125 6.453125 -2.203125 C 6.910156 -2.203125 7.375 -2.320312 7.84375 -2.5625 C 8.3125 -2.800781 8.675781 -3.117188 8.9375 -3.515625 C 9.15625 -3.878906 9.265625 -4.503906 9.265625 -5.390625 L 9.265625 -6.453125 C 8.597656 -6.242188 7.859375 -6.050781 7.046875 -5.875 Z M 7.046875 -5.875 "/></g></g></g><g fill="#274165" fill-opacity="1"><g transform="translate(266.186734, 45.440875)"><g><path d="M 5.59375 -13.40625 L 8 -13.40625 L 8 -10.59375 L 5.59375 -10.59375 L 5.59375 -4.6875 C 5.59375 -4.113281 5.613281 -3.6875 5.65625 -3.40625 C 5.695312 -3.132812 5.785156 -2.9375 5.921875 -2.8125 C 6.066406 -2.695312 6.285156 -2.640625 6.578125 -2.640625 C 6.941406 -2.640625 7.414062 -2.753906 8 -2.984375 L 8.3125 -0.234375 C 7.945312 -0.0546875 7.503906 0.078125 6.984375 0.171875 C 6.472656 0.265625 5.984375 0.3125 5.515625 0.3125 C 4.835938 0.3125 4.238281 0.203125 3.71875 -0.015625 C 3.207031 -0.242188 2.832031 -0.550781 2.59375 -0.9375 C 2.332031 -1.363281 2.171875 -1.835938 2.109375 -2.359375 C 2.046875 -2.890625 2.015625 -3.550781 2.015625 -4.34375 L 2.015625 -10.59375 L 0.390625 -10.59375 L 0.390625 -13.40625 L 2.015625 -13.40625 L 2.015625 -16.078125 L 5.59375 -18.171875 Z M 5.59375 -13.40625 "/></g></g></g><g fill="#274165" fill-opacity="1"><g transform="translate(276.127653, 45.440875)"><g><path d="M 5.40625 -15.25 L 1.859375 -15.25 L 1.859375 -18.53125 L 5.40625 -18.53125 Z M 5.40625 0 L 1.859375 0 L 1.859375 -13.40625 L 5.40625 -13.40625 Z M 5.40625 0 "/></g></g></g><g fill="#274165" fill-opacity="1"><g transform="translate(284.644817, 45.440875)"><g><path d="M 7.953125 -13.71875 C 9.398438 -13.71875 10.648438 -13.390625 11.703125 -12.734375 C 12.753906 -12.078125 13.546875 -11.210938 14.078125 -10.140625 C 14.617188 -9.078125 14.890625 -7.945312 14.890625 -6.75 C 14.890625 -5.507812 14.609375 -4.347656 14.046875 -3.265625 C 13.484375 -2.191406 12.679688 -1.328125 11.640625 -0.671875 C 10.597656 -0.015625 9.375 0.3125 7.96875 0.3125 C 6.78125 0.3125 5.660156 0.0664062 4.609375 -0.421875 C 3.554688 -0.921875 2.695312 -1.707031 2.03125 -2.78125 C 1.363281 -3.863281 1.03125 -5.234375 1.03125 -6.890625 C 1.03125 -8.046875 1.289062 -9.144531 1.8125 -10.1875 C 2.34375 -11.226562 3.128906 -12.078125 4.171875 -12.734375 C 5.222656 -13.390625 6.484375 -13.71875 7.953125 -13.71875 Z M 4.6875 -6.703125 C 4.6875 -5.359375 5 -4.335938 5.625 -3.640625 C 6.257812 -2.941406 7.035156 -2.59375 7.953125 -2.59375 C 8.867188 -2.59375 9.644531 -2.9375 10.28125 -3.625 C 10.914062 -4.3125 11.234375 -5.347656 11.234375 -6.734375 C 11.234375 -8.003906 10.925781 -9.003906 10.3125 -9.734375 C 9.695312 -10.460938 8.898438 -10.828125 7.921875 -10.828125 C 7.023438 -10.828125 6.257812 -10.472656 5.625 -9.765625 C 5 -9.054688 4.6875 -8.035156 4.6875 -6.703125 Z M 4.6875 -6.703125 "/></g></g></g><g fill="#274165" fill-opacity="1"><g transform="translate(301.782149, 45.440875)"><g><path d="M 9.578125 -13.71875 C 10.367188 -13.71875 11.054688 -13.582031 11.640625 -13.3125 C 12.234375 -13.050781 12.703125 -12.738281 13.046875 -12.375 C 13.460938 -11.925781 13.734375 -11.394531 13.859375 -10.78125 C 13.992188 -10.164062 14.0625 -9.488281 14.0625 -8.75 L 14.0625 0 L 10.515625 0 L 10.515625 -7.328125 C 10.515625 -8.566406 10.375 -9.488281 10.09375 -10.09375 C 9.820312 -10.695312 9.238281 -11 8.34375 -11 C 7.488281 -11 6.828125 -10.753906 6.359375 -10.265625 C 5.898438 -9.785156 5.628906 -9.226562 5.546875 -8.59375 C 5.492188 -8.175781 5.453125 -7.800781 5.421875 -7.46875 C 5.398438 -7.144531 5.390625 -6.78125 5.390625 -6.375 L 5.390625 0 L 1.84375 0 L 1.84375 -13.40625 L 5.203125 -13.40625 L 5.203125 -11.4375 C 5.585938 -12.007812 6.15625 -12.53125 6.90625 -13 C 7.65625 -13.476562 8.546875 -13.71875 9.578125 -13.71875 Z M 9.578125 -13.71875 "/></g></g></g><g fill="#274165" fill-opacity="1"><g transform="translate(318.919481, 45.440875)"><g><path d="M 6.75 -13.71875 C 8.425781 -13.71875 9.742188 -13.441406 10.703125 -12.890625 C 11.660156 -12.335938 12.320312 -11.429688 12.6875 -10.171875 L 9.328125 -9.546875 C 9.171875 -10.097656 8.890625 -10.507812 8.484375 -10.78125 C 8.078125 -11.050781 7.507812 -11.1875 6.78125 -11.1875 C 5.175781 -11.1875 4.375 -10.816406 4.375 -10.078125 C 4.375 -9.710938 4.632812 -9.421875 5.15625 -9.203125 C 5.6875 -8.984375 6.453125 -8.765625 7.453125 -8.546875 C 8.679688 -8.265625 9.679688 -7.984375 10.453125 -7.703125 C 11.234375 -7.421875 11.875 -7 12.375 -6.4375 C 12.875 -5.875 13.125 -5.125 13.125 -4.1875 C 13.125 -3.4375 12.910156 -2.71875 12.484375 -2.03125 C 12.066406 -1.351562 11.398438 -0.789062 10.484375 -0.34375 C 9.566406 0.09375 8.410156 0.3125 7.015625 0.3125 C 5.441406 0.3125 4.054688 -0.0195312 2.859375 -0.6875 C 1.660156 -1.363281 0.90625 -2.410156 0.59375 -3.828125 L 4.140625 -4.375 C 4.472656 -2.945312 5.429688 -2.234375 7.015625 -2.234375 C 7.640625 -2.234375 8.222656 -2.335938 8.765625 -2.546875 C 9.304688 -2.765625 9.578125 -3.148438 9.578125 -3.703125 C 9.578125 -4.066406 9.453125 -4.320312 9.203125 -4.46875 C 8.953125 -4.613281 8.550781 -4.75 8 -4.875 C 6.363281 -5.226562 5.085938 -5.5625 4.171875 -5.875 C 3.253906 -6.1875 2.507812 -6.632812 1.9375 -7.21875 C 1.375 -7.8125 1.09375 -8.609375 1.09375 -9.609375 C 1.09375 -11.003906 1.625 -12.035156 2.6875 -12.703125 C 3.757812 -13.378906 5.113281 -13.71875 6.75 -13.71875 Z M 6.75 -13.71875 "/></g></g></g></svg>